<svg id="Home_Buyers" data-name="Home Buyers" xmlns="http://www.w3.org/2000/svg" viewBox="0 0 421.53 139.79"><defs><style>.cls-1{fill:#002b64;}.cls-2{fill:#88bc41;}</style></defs><title>Artboard 1</title><polygon class="cls-1" points="20.08 2.19 58.44 63.85 58.7 63.85 58.7 2.19 77.62 2.19 77.62 94.1 57.41 94.1 19.18 32.57 18.92 32.57 18.92 94.1 0 94.1 0 2.19 20.08 2.19"/><polygon class="cls-1" points="200.47 94.1 170.74 2.19 191.46 2.19 211.93 66.81 212.19 66.81 232.91 2.19 253.76 2.19 223.26 94.1 200.47 94.1"/><path class="cls-1" d="M328.2,87.08q-10.43,9.07-28.83,9.07-18.66,0-28.9-9t-10.23-27.8V2.19h20.21V59.34a41.83,41.83,0,0,0,.64,7.34,14.28,14.28,0,0,0,8.43,10.88,23.3,23.3,0,0,0,9.85,1.74q10.81,0,14.93-4.83t4.12-15.12V2.19h20.21V59.34q0,18.66-10.43,27.74"/><path class="cls-1" d="M365.4,71.44a14.56,14.56,0,0,0,4.44,5.21,19.12,19.12,0,0,0,6.5,3,30.61,30.61,0,0,0,7.72,1,39.33,39.33,0,0,0,5.79-.45,20,20,0,0,0,5.79-1.74,12.57,12.57,0,0,0,4.5-3.54,8.87,8.87,0,0,0,1.8-5.73,8.06,8.06,0,0,0-2.38-6,18.92,18.92,0,0,0-6.24-3.86,62.09,62.09,0,0,0-8.75-2.7q-4.9-1.16-9.92-2.58a87.38,87.38,0,0,1-10-3.15A34.52,34.52,0,0,1,355.88,46a22.72,22.72,0,0,1-6.24-7.4,22.44,22.44,0,0,1-2.38-10.75,24.1,24.1,0,0,1,3-12.29,27.47,27.47,0,0,1,7.92-8.69,34.5,34.5,0,0,1,11.07-5.14A47.07,47.07,0,0,1,381.62,0a58.55,58.55,0,0,1,13.84,1.61,34.68,34.68,0,0,1,11.78,5.21A26.43,26.43,0,0,1,415.42,16a28.26,28.26,0,0,1,3,13.58H398.87a16.32,16.32,0,0,0-1.74-6.82,11.44,11.44,0,0,0-3.92-4.25,16.68,16.68,0,0,0-5.6-2.19,34.62,34.62,0,0,0-6.88-.64,23.65,23.65,0,0,0-4.89.52,13.13,13.13,0,0,0-4.44,1.8,11.16,11.16,0,0,0-3.28,3.22,8.62,8.62,0,0,0-1.29,4.89,8.27,8.27,0,0,0,1,4.38,9.18,9.18,0,0,0,4.06,3.09,51,51,0,0,0,8.36,2.83q5.34,1.42,14,3.6,2.58.52,7.15,1.87a34.35,34.35,0,0,1,9.07,4.31,27.52,27.52,0,0,1,7.79,7.92q3.28,5,3.28,12.68a28.08,28.08,0,0,1-2.45,11.71,25.44,25.44,0,0,1-7.27,9.33,35,35,0,0,1-12,6.12,56.6,56.6,0,0,1-16.54,2.19,58.12,58.12,0,0,1-14.74-1.87,37,37,0,0,1-12.62-5.86,28.86,28.86,0,0,1-8.69-10.17,30.39,30.39,0,0,1-3.09-14.68h19.57a16.81,16.81,0,0,0,1.67,7.85"/><path class="cls-1" d="M162.72,48.15H150.08v7.95h23.78a60.11,60.11,0,0,0,.51-7.56,62.68,62.68,0,0,0-.58-8.34h-19Z"/><path class="cls-1" d="M108.3,48.15H95.67l8-8h-19A63.21,63.21,0,0,0,84,48.53a60.14,60.14,0,0,0,.51,7.56H108.3Z"/><path class="cls-1" d="M90.81,75.28A43.09,43.09,0,0,0,96,82.39a39.22,39.22,0,0,0,5.35,4.87l17-17h-10V57.79Z"/><path class="cls-1" d="M162.4,82.39a43,43,0,0,0,5.17-7.1L150.08,57.79V70.28h-10l17,17a39.5,39.5,0,0,0,5.34-4.87"/><path class="cls-2" d="M137.14,95.6V56.09h-15.9v39.5a54.17,54.17,0,0,0,7.95.57,55,55,0,0,0,8-.56"/><path class="cls-1" d="M106.81,37l11.24-11.24-16.7-16.7A39.54,39.54,0,0,0,96,14a43.8,43.8,0,0,0-5.07,7.07Z"/><path class="cls-1" d="M140.34,25.76,151.57,37l15.91-15.9A43.79,43.79,0,0,0,162.4,14,40.16,40.16,0,0,0,157,9Z"/><path class="cls-1" d="M137.14,22.57V.57a54.25,54.25,0,0,0-8-.57,52.86,52.86,0,0,0-7.95.58v22l8-7.95Z"/><path class="cls-1" d="M90.83,139l5.94-28h5.79l-2.28,10.67h10.93L113.49,111h5.81l-5.94,28h-5.81l2.64-12.49H99.26L96.62,139Z"/><path class="cls-1" d="M144.89,136.52a14.71,14.71,0,0,1-9.85,3.26q-6,0-8.49-3.26-3.4-4-1.78-11.54,1.63-7.69,6.7-11.54a14.71,14.71,0,0,1,9.85-3.26q6,0,8.49,3.26,3.42,3.85,1.78,11.54Q150,132.52,144.89,136.52Zm.85-11.54q1-4.71-.5-7.28a5.28,5.28,0,0,0-5-2.57,8.41,8.41,0,0,0-6.08,2.56,14,14,0,0,0-3.62,7.29q-1,4.73.51,7.29a5.35,5.35,0,0,0,5,2.56,8.35,8.35,0,0,0,6.06-2.56A14.11,14.11,0,0,0,145.74,125Z"/><path class="cls-1" d="M181.44,111h8.41l-5.94,28h-5.45l4-18.93q.19-.82.52-2.29t.48-2.27L173.21,139h-5.68l-.28-23.48q-.15.8-.45,2.27t-.48,2.29l-4,18.93h-5.45l5.94-28h8.5l.4,22Z"/><path class="cls-1" d="M218.8,116H204l-1.25,5.94h13.59l-1,4.86H201.69L200.18,134h15.49l-1.06,5H193.4l5.94-28h20.52Z"/><path class="cls-1" d="M264,114a6.36,6.36,0,0,1,.4,4.27,7.78,7.78,0,0,1-2.18,4.12,8.72,8.72,0,0,1-2.45,1.59,4.62,4.62,0,0,1,2.7,2.47,6.71,6.71,0,0,1,.22,4.1,10.07,10.07,0,0,1-2.2,4.46,10.71,10.71,0,0,1-2.47,2.2,9.66,9.66,0,0,1-3.46,1.4,20.74,20.74,0,0,1-4.05.38H237.83l5.94-28h13.59Q262.49,111.11,264,114Zm-18,12.68-1.58,7.46h6.87a7.44,7.44,0,0,0,3-.49,4.57,4.57,0,0,0,2.62-3.49q.46-2.18-1.18-3a6.5,6.5,0,0,0-2.73-.47Zm2.3-10.8L247,122.06h6.87a6.6,6.6,0,0,0,3.14-.69,3.41,3.41,0,0,0,1.68-2.46q.4-2-1-2.58a10,10,0,0,0-3.26-.44Z"/><path class="cls-1" d="M275.64,111h5.94l-3.66,17.2a9.37,9.37,0,0,0-.21,4.21q.57,2.35,4.14,2.35t5.11-2.35a11.33,11.33,0,0,0,1.58-4.21l3.66-17.2h5.94l-3.66,17.2a17.19,17.19,0,0,1-2.87,6.95q-3.55,4.56-10.82,4.56t-8.9-4.56q-.85-2.49.09-6.95Z"/><path class="cls-1" d="M323.56,111h6.62l-13.08,17.46L314.89,139H309l2.22-10.52-6-17.46h6.89l3.21,12.19Z"/><path class="cls-1" d="M357,116H342.24L341,121.92h13.59l-1,4.86H339.94L338.42,134h15.49l-1.06,5h-21.2l5.94-28h20.52Z"/><path class="cls-1" d="M387.74,113.71a6.73,6.73,0,0,1,.94,2.35,7.42,7.42,0,0,1-.09,2.94,10.39,10.39,0,0,1-1.85,3.92,7.54,7.54,0,0,1-3.9,2.72,3.87,3.87,0,0,1,2.27,2.21,8.69,8.69,0,0,1-.12,4.38l-.4,1.88a15.75,15.75,0,0,0-.4,2.6,1.82,1.82,0,0,0,.72,1.59l-.13.7h-6.43q-.08-.93-.08-1.5a13.38,13.38,0,0,1,.27-2.41l.51-2.6q.53-2.68-.22-3.57t-3.33-.89h-6l-2.32,11h-5.71l5.94-28h13.72a11.48,11.48,0,0,1,4.37.72A5.28,5.28,0,0,1,387.74,113.71ZM372,115.89l-1.59,7.52h6.62a8.13,8.13,0,0,0,3.06-.46,4.09,4.09,0,0,0,2.43-3.15q.53-2.54-1-3.42a5.76,5.76,0,0,0-2.75-.49Z"/><path class="cls-1" d="M399.31,130.37a5,5,0,0,0,.44,2.87q1.06,1.73,4.52,1.73a11.2,11.2,0,0,0,3.45-.46,4.25,4.25,0,0,0,3.13-3.25,1.91,1.91,0,0,0-.76-2.14,10.48,10.48,0,0,0-3.53-1.31l-2.83-.66q-4.16-1-5.58-2.14-2.41-1.94-1.54-6.06a10.39,10.39,0,0,1,4.06-6.25,13.76,13.76,0,0,1,8.56-2.49,10.17,10.17,0,0,1,7,2.34q2.62,2.34,1.82,6.81h-5.62a3.18,3.18,0,0,0-1.42-3.59,6.47,6.47,0,0,0-3.25-.7A7.39,7.39,0,0,0,404,116a3.76,3.76,0,0,0-1.89,2.54,1.93,1.93,0,0,0,.85,2.24,13.22,13.22,0,0,0,3.4,1.16l4.57,1.16a9.87,9.87,0,0,1,4.35,2q2.09,2,1.29,5.71a10.42,10.42,0,0,1-4.29,6.37,14.59,14.59,0,0,1-8.83,2.53q-5.47,0-8.07-2.5t-1.67-6.86Z"/></svg>